<?xml version="1.0" standalone="no"?><!DOCTYPE svg PUBLIC "-//W3C//DTD SVG 1.1//EN" "http://www.w3.org/Graphics/SVG/1.1/DTD/svg11.dtd"><svg t="1647604244982" class="icon" viewBox="0 0 1024 1024" version="1.1" xmlns="http://www.w3.org/2000/svg" p-id="4598" xmlns:xlink="http://www.w3.org/1999/xlink" width="200" height="200"><defs><style type="text/css"></style></defs><path d="M366.506667 1022.890667q-7.893333 0-14.08-2.816-6.186667-2.816-11.861334-7.338667-5.632-4.522667-7.893333-11.264-2.261333-6.784-3.370667-14.677333l1.109334-252.586667h667.648l-303.36 288.682667H365.397333zM1024 657.493333q-1.109333 7.893333-3.370667 14.08-2.261333 6.229333-7.893333 11.306667-5.632 5.077333-11.861333 7.893333-6.186667 2.816-14.08 2.816h-252.586667L733.013333 24.832l289.834667 304.512v328.149333zM657.493333 1.152q6.784 0 14.08 2.816t11.306667 7.338667q3.925333 4.522667 7.338667 11.264 3.370667 6.784 2.218666 14.677333l1.152 252.586667H23.722667L329.344 1.194667h327.04zM1.152 366.549333q-1.109333-7.893333 2.261333-14.08 3.413333-6.229333 7.893334-11.306666 4.522667-5.077333 11.264-7.893334 6.784-2.816 13.525333-2.816h253.738667L288.725333 999.253333l-287.573333-304.469333L0.042667 366.506667z" p-id="4599" fill="#ECA155"></path></svg>